<?xml version="1.0" standalone="no"?>
<!DOCTYPE svg PUBLIC "-//W3C//DTD SVG 20010904//EN"
 "http://www.w3.org/TR/2001/REC-SVG-20010904/DTD/svg10.dtd">
<svg version="1.0" xmlns="http://www.w3.org/2000/svg"
 width="400.000000pt" height="52.000000pt" viewBox="0 0 400.000000 52.000000"
 preserveAspectRatio="xMidYMid meet">

<g transform="translate(0.000000,52.000000) scale(0.100000,-0.100000)"
fill="#000000" stroke="none">
<path d="M2597 478 c-12 -13 -46 -51 -76 -85 -30 -35 -58 -63 -62 -63 -5 0 -9
33 -9 74 0 78 -5 86 -55 86 -43 0 -46 -15 -43 -231 l3 -204 45 0 45 0 3 78 c2
43 6 77 11 75 4 -2 41 -40 81 -85 40 -46 78 -83 85 -83 19 0 65 40 65 57 0 8
-35 51 -77 94 l-77 79 40 34 c22 19 57 55 78 80 43 53 42 77 -5 101 -28 15
-31 14 -52 -7z"/>
<path d="M861 476 c-8 -9 -11 -75 -9 -217 l3 -204 39 -3 c21 -2 43 1 49 7 6 6
14 61 17 122 l5 111 43 -61 c45 -65 80 -84 109 -60 9 8 36 41 60 74 l43 59 0
-111 c0 -61 3 -118 6 -127 7 -19 74 -22 92 -4 8 8 12 68 12 203 0 216 -3 229
-60 223 -31 -3 -43 -14 -105 -95 -38 -50 -73 -92 -76 -92 -4 -1 -35 36 -69 82
-35 45 -70 88 -78 95 -21 16 -67 15 -81 -2z"/>
<path d="M1392 478 c-17 -17 -17 -413 1 -425 18 -12 246 -16 287 -6 33 9 35
11 35 54 l0 44 -115 5 -115 5 -3 26 c-3 27 -3 27 78 31 87 3 100 11 100 59 0
39 -18 48 -100 51 -74 3 -75 4 -78 31 l-3 27 109 0 c124 0 135 6 130 67 l-3
38 -155 3 c-113 2 -159 -1 -168 -10z"/>
<path d="M1770 471 c-13 -25 -13 -361 0 -395 9 -26 11 -26 112 -26 119 0 166
16 212 71 45 53 59 95 54 166 -5 81 -41 136 -117 175 -48 25 -63 28 -152 28
-87 0 -99 -2 -109 -19z m220 -108 c14 -9 30 -24 37 -33 18 -22 16 -101 -3
-129 -21 -29 -72 -51 -119 -51 l-35 0 0 115 0 115 48 0 c28 0 57 -7 72 -17z"/>
<path d="M2202 478 c-17 -17 -17 -399 0 -416 18 -18 85 -15 92 4 3 9 6 102 6
208 0 209 -2 216 -55 216 -17 0 -36 -5 -43 -12z"/>
<path d="M2908 473 c-28 -33 -189 -379 -183 -395 8 -20 53 -40 74 -33 9 3 27
25 39 50 l22 45 85 0 85 0 25 -50 c29 -57 49 -63 90 -28 l26 23 -86 179 c-47
99 -92 190 -100 203 -18 27 -56 30 -77 6z m72 -235 c0 -5 -18 -8 -40 -8 l-40
0 21 42 21 42 19 -35 c10 -18 18 -37 19 -41z"/>
</g>
</svg>
